{
  "accessors": [
    {
      "bufferView": 0,
      "byteOffset": 0,
      "componentType": 5123,
      "count": 213774,
      "type": "SCALAR"
    },
    {
      "bufferView": 1,
      "byteOffset": 0,
      "componentType": 5126,
      "count": 44464,
      "max": [
        0.7146837989807129,
        0.8357014122009278,
        0.36600047950744635
      ],
      "min": [
        -0.7146837989807129,
        -2.057885621553824e-17,
        -0.36600047950744624
      ],
      "type": "VEC3"
    },
    {
      "bufferView": 2,
      "byteOffset": 0,
      "componentType": 5126,
      "count": 44464,
      "name": "map1",
      "type": "VEC2"
    },
    {
      "bufferView": 3,
      "byteOffset": 0,
      "componentType": 5126,
      "count": 44464,
      "type": "VEC3"
    }
  ],
  "asset": {
    "copyright": "2022 (c) Amazon.com, Inc.",
    "generator": "encglb version ad380802a408fc50ca748d51103494b999e1e372 (post-processed with splitglb)",
    "version": "2.0"
  },
  "bufferViews": [
    {
      "buffer": 0,
      "byteLength": 427548,
      "byteOffset": 0
    },
    {
      "buffer": 0,
      "byteLength": 533568,
      "byteOffset": 427548
    },
    {
      "buffer": 0,
      "byteLength": 355712,
      "byteOffset": 961116
    },
    {
      "buffer": 0,
      "byteLength": 533568,
      "byteOffset": 1316828
    }
  ],
  "buffers": [
    {
      "byteLength": 1850396,
      "uri": "ASSET.bin"
    }
  ],
  "extensionsUsed": [
    "FB_ngon_encoding"
  ],
  "images": [
    {
      "uri": "normalTexture0.png"
    },
    {
      "uri": "baseColorTexture1.png"
    },
    {
      "uri": "metallicRoughnessTexture2.png"
    }
  ],
  "materials": [
    {
      "doubleSided": true,
      "extensions": {},
      "name": "ASSET_MAT_MR",
      "normalTexture": {
        "index": 0
      },
      "pbrMetallicRoughness": {
        "baseColorTexture": {
          "index": 1
        },
        "metallicRoughnessTexture": {
          "index": 2
        }
      }
    }
  ],
  "meshes": [
    {
      "name": "mesh_44",
      "primitives": [
        {
          "attributes": {
            "NORMAL": 3,
            "POSITION": 1,
            "TEXCOORD_0": 2
          },
          "extensions": {
            "FB_ngon_encoding": {}
          },
          "indices": 0,
          "material": 0
        }
      ]
    }
  ],
  "nodes": [
    {
      "children": [
        1
      ],
      "name": "polySurface2"
    },
    {
      "mesh": 0,
      "name": "polySurface3"
    }
  ],
  "samplers": [
    {}
  ],
  "scene": 0,
  "scenes": [
    {
      "name": "Scene",
      "nodes": [
        0
      ]
    }
  ],
  "textures": [
    {
      "sampler": 0,
      "source": 0
    },
    {
      "sampler": 0,
      "source": 1
    },
    {
      "sampler": 0,
      "source": 2
    }
  ]
}